<svg xmlns="http://www.w3.org/2000/svg" viewBox="0 0 512 512">
  <defs>
    <linearGradient id="background" x1="0" y1="0" x2="1" y2="1">
      <stop stop-color="#8c67ef"/>
      <stop offset="1" stop-color="#271650"/>
    </linearGradient>
  </defs>
  <rect width="512" height="512" rx="112" fill="url(#background)"/>
  <path d="M144 154c28-28 65-42 112-42 48 0 86 14 114 42l-38 39c-19-18-44-27-76-27-31 0-56 9-75 27l-37-39Zm0 204c28 28 65 42 112 42 48 0 86-14 114-42l-38-39c-19 18-44 27-76 27-31 0-56-9-75-27l-37 39Zm37-102c20-20 45-30 75-30s55 10 75 30l-37 38c-10-10-23-15-38-15s-28 5-38 15l-37-38Z" fill="#fff"/>
</svg>
